<?xml version="1.0" standalone="no"?>
<!DOCTYPE svg PUBLIC "-//W3C//DTD SVG 20010904//EN" "http://www.w3.org/TR/2001/REC-SVG-20010904/DTD/svg10.dtd">
<svg xmlns="http://www.w3.org/2000/svg" version="1.0" width="500" height="500" viewBox="0 0 500.000000 500.000000" preserveAspectRatio="xMidYMid meet">

<g transform="translate(0.000000,500.000000) scale(0.100000,-0.100000)" fill="#FFFFFF" stroke="none">
<path d="M3184 3693 c-10 -44 -23 -53 -70 -53 -51 0 -56 -12 -14 -36 37 -23 41 -34 28 -78 -14 -46 -6 -54 28 -27 15 11 34 21 44 21 10 0 29 -10 44 -21 34 -27 42 -19 28 27 -13 44 -10 55 28 76 42 24 37 36 -17 40 -43 3 -47 6 -58 37 -15 44 -32 50 -41 14z"/>
<path d="M2355 3536 c-374 -98 -593 -327 -666 -699 -26 -131 -27 -316 -2 -345 19 -22 130 -82 151 -82 15 0 15 2 -4 82 -25 101 -19 106 68 62 40 -19 84 -41 97 -47 18 -9 30 -32 50 -92 43 -133 103 -227 213 -336 87 -86 150 -131 164 -117 9 10 -8 35 -32 49 -23 12 -23 14 -7 20 10 3 64 9 120 13 l101 7 23 -30 c13 -17 29 -31 36 -31 18 0 16 19 -2 26 -12 5 -23 44 -12 44 1 0 49 19 107 43 125 51 203 103 286 189 79 82 118 140 139 208 18 58 34 84 36 60 1 -8 2 -42 3 -75 1 -62 3 -65 36 -65 30 0 33 33 16 202 -15 157 -41 277 -76 354 -11 24 -20 45 -20 48 0 32 -230 309 -244 295 -3 -3 27 -52 66 -109 109 -160 110 -167 56 -247 -15 -23 -28 -45 -28 -50 0 -4 -24 -35 -54 -68 -35 -39 -57 -56 -64 -50 -5 6 -21 48 -36 94 -15 46 -47 123 -71 171 l-44 87 40 64 c21 35 39 68 39 73 0 5 -20 -10 -45 -33 -24 -22 -49 -41 -55 -41 -5 0 -17 12 -27 28 -22 34 -95 123 -99 119 -1 -1 13 -34 32 -72 49 -101 47 -106 -38 -152 -99 -53 -219 -95 -260 -91 -31 3 -33 6 -40 48 -3 25 -7 82 -7 128 -1 45 -5 82 -10 82 -9 0 -21 -119 -21 -211 0 -70 -2 -71 -130 -67 l-85 3 3 40 c1 22 7 62 13 88 6 26 9 51 5 54 -8 8 -36 -60 -51 -122 l-12 -50 -42 1 c-60 1 -68 14 -38 61 87 137 291 277 476 324 105 27 268 25 381 -4 105 -27 262 -112 340 -184 98 -90 176 -219 234 -388 l25 -70 0 45 c4 205 -193 492 -440 642 -155 94 -398 125 -594 74z m389 -492 c37 -80 106 -271 106 -291 0 -23 -91 -80 -185 -118 -70 -28 -221 -63 -230 -53 -3 3 -14 36 -24 74 -10 38 -30 111 -45 163 -14 52 -23 98 -20 102 3 5 18 9 33 9 73 0 216 67 290 136 20 19 39 34 43 34 3 0 18 -25 32 -56z m-808 -61 l42 -17 -2 -136 c0 -74 3 -156 7 -182 8 -47 8 -48 -18 -48 -37 0 -133 47 -146 72 -18 34 8 203 45 293 17 40 17 41 72 18z m1212 -66 c35 -88 55 -177 50 -227 -8 -78 -172 -340 -198 -314 -5 5 -13 45 -19 89 -6 44 -18 117 -27 162 l-16 83 39 47 c62 75 101 137 115 182 7 22 17 40 23 38 5 -2 20 -29 33 -60z m-931 3 c34 0 64 -4 68 -9 3 -6 10 -56 15 -113 6 -57 17 -130 25 -163 10 -36 12 -62 6 -68 -11 -11 -196 -13 -229 -3 -30 10 -39 35 -57 157 -17 114 -19 183 -5 208 8 17 13 17 62 5 29 -8 80 -14 115 -14z m667 -307 c3 -10 14 -61 25 -113 12 -52 25 -112 30 -134 9 -35 7 -41 -17 -63 -37 -34 -173 -98 -250 -118 -63 -16 -102 -13 -102 7 0 5 -22 66 -50 134 -27 68 -50 128 -50 132 0 5 42 19 92 32 94 23 195 68 257 114 41 30 58 33 65 9z m-569 -159 c39 -1 72 -3 76 -3 3 -1 13 -25 24 -53 10 -29 38 -93 61 -143 32 -66 40 -91 31 -97 -14 -9 -168 -9 -212 1 -35 7 -72 59 -141 193 -60 120 -60 122 24 113 37 -4 99 -9 137 -11z"/>
<path d="M3472 3370 c-7 -11 -21 -20 -32 -20 -24 0 -27 -25 -4 -34 12 -5 14 -14 9 -37 -6 -29 -5 -31 11 -24 24 10 44 10 67 0 14 -6 17 -2 17 23 0 17 5 34 10 37 17 11 11 35 -10 35 -10 0 -24 9 -30 20 -6 11 -14 20 -18 20 -4 0 -13 -9 -20 -20z"/>
<path d="M3608 3062 c-10 -11 -14 -27 -11 -43 4 -23 10 -27 38 -27 27 0 34 4 38 25 3 16 -2 32 -14 44 -23 23 -29 23 -51 1z"/>
<path d="M1156 2543 c4 -16 16 -57 26 -93 10 -36 27 -99 37 -141 21 -88 26 -99 48 -99 36 0 344 -73 420 -100 189 -67 324 -139 503 -272 114 -84 182 -150 238 -230 35 -48 46 -48 38 2 -9 58 -45 133 -110 233 -44 66 -89 115 -185 202 -282 255 -453 354 -810 471 -91 30 -175 54 -188 54 -20 0 -23 -3 -17 -27z"/>
<path d="M3755 2541 c-347 -107 -544 -210 -772 -406 -204 -175 -318 -310 -372 -438 -45 -109 -41 -164 6 -94 30 44 157 174 217 222 231 187 551 320 917 380 21 3 42 11 48 18 14 18 91 285 91 320 0 34 -15 34 -135 -2z"/>
<path d="M837 2084 c-8 -8 9 -42 35 -69 10 -11 54 -72 97 -135 l78 -115 39 2 c156 10 400 4 499 -11 319 -50 592 -150 781 -287 46 -34 87 -59 90 -56 25 24 -152 218 -286 313 -94 67 -293 168 -410 209 -156 55 -408 118 -555 140 -100 15 -356 21 -368 9z"/>
<path d="M3925 2079 c-209 -25 -358 -57 -560 -120 -124 -39 -371 -151 -447 -203 -20 -13 -38 -22 -41 -20 -10 10 -213 -195 -249 -251 -38 -58 -39 -60 -19 -75 15 -11 18 -19 11 -30 -17 -27 -11 -30 28 -16 246 93 532 118 857 77 147 -19 338 -67 440 -111 25 -11 60 -20 75 -20 29 0 100 37 220 115 36 23 93 57 128 74 92 46 87 55 -58 101 -204 65 -475 90 -775 71 -391 -25 -585 -82 -862 -253 -44 -27 -64 -13 -27 19 253 214 797 361 1234 334 58 -4 111 -5 118 -3 13 5 122 158 122 173 0 5 4 9 8 9 4 0 21 20 36 45 16 25 35 50 42 56 8 6 14 18 14 25 0 11 -23 14 -112 13 -62 -1 -144 -5 -183 -10z"/>
<path d="M986 1649 c-153 -20 -366 -81 -366 -103 0 -18 11 -26 95 -72 39 -21 115 -65 170 -98 117 -71 151 -75 251 -33 97 41 269 83 444 108 112 16 491 6 575 -15 33 -9 107 -31 165 -51 58 -20 113 -38 123 -41 40 -14 12 18 -55 62 -140 91 -369 187 -521 218 -239 50 -620 60 -881 25z"/>
</g>
</svg> 